<svg width="1408" height="144" viewBox="0 0 1408 144" fill="none" xmlns="http://www.w3.org/2000/svg">
<path d="M0 0.411429C1.81743 7.30249 5.447 13.5812 10.5116 18.5951C15.5762 23.6091 21.891 27.1753 28.8 28.9234H73.7691L76.0731 29.8286V143.301H104.133V29.9931L106.683 29.088H151.694C158.58 27.2929 164.87 23.7108 169.927 18.7041C174.984 13.6975 178.63 7.44385 180.494 0.576V0.288H0V0.411429ZM981.71 0.246857H953.732V143.63H1081.85C1087.92 141.28 1093.32 137.479 1097.58 132.559C1101.84 127.638 1104.83 121.749 1106.29 115.406H981.627L981.71 0.246857ZM766.409 28.4709C781.303 24.3566 793.81 12.7543 796.814 0.164571L640.059 0.411429V84.96H768.302V114.706H667.666C659.994 116.695 652.832 120.291 646.654 125.256C640.476 130.221 635.424 136.442 631.831 143.506H795.95V56.8183H667.749V28.4709H766.409ZM1244.37 143.547H1272.18V85.8652H1373.31V143.547H1401.08V57.0651L1244.37 56.9006V143.547ZM351.154 28.8H458.126C465.133 27.1142 471.544 23.5371 476.659 18.4588C481.773 13.3804 485.396 6.99551 487.131 0L322.149 0C323.901 6.98743 327.529 13.3633 332.641 18.439C337.753 23.5147 344.155 27.0974 351.154 28.8ZM351.154 85.4537H458.126C465.129 83.7595 471.535 80.1796 476.649 75.1026C481.762 70.0256 485.387 63.6452 487.131 56.6537H322.149C323.909 63.6371 327.54 70.0086 332.651 75.0829C337.761 80.1573 344.159 83.7428 351.154 85.4537ZM351.154 143.63H458.126C465.129 141.935 471.535 138.356 476.649 133.279C481.762 128.202 485.387 121.821 487.131 114.83H322.149C323.905 121.815 327.535 128.189 332.646 133.264C337.757 138.339 344.157 141.923 351.154 143.63ZM1269.09 28.8823H1376.06C1383.08 27.1989 1389.49 23.6234 1394.62 18.5452C1399.74 13.4671 1403.37 7.08092 1405.11 0.0822857H1240.09C1241.83 7.07375 1245.46 13.4541 1250.57 18.5312C1255.68 23.6082 1262.09 27.188 1269.09 28.8823Z" fill="black"/>
</svg>
